<?xml version="1.0" standalone="no"?>
<!DOCTYPE svg PUBLIC "-//W3C//DTD SVG 20010904//EN"
 "http://www.w3.org/TR/2001/REC-SVG-20010904/DTD/svg10.dtd">
<svg version="1.0" xmlns="http://www.w3.org/2000/svg"
 width="512.000000pt" height="512.000000pt" viewBox="0 0 512.000000 512.000000"
 preserveAspectRatio="xMidYMid meet">

<g transform="translate(0.000000,512.000000) scale(0.100000,-0.100000)"
fill="#000000" stroke="none">
<path d="M2501 5014 c-19 -25 -21 -40 -21 -205 0 -111 4 -187 11 -203 25 -53
110 -57 136 -5 9 16 13 81 13 205 0 168 -1 183 -21 208 -16 20 -29 26 -59 26
-30 0 -43 -6 -59 -26z"/>
<path d="M800 4320 c-12 -12 -20 -33 -20 -53 0 -28 17 -49 138 -170 116 -116
142 -137 168 -137 39 0 74 36 74 76 0 24 -23 52 -138 167 -120 119 -141 137
-170 137 -19 0 -40 -8 -52 -20z"/>
<path d="M4097 4202 c-116 -116 -137 -142 -137 -168 0 -41 32 -74 73 -74 28 0
50 18 170 138 119 120 137 141 137 170 0 42 -30 72 -73 72 -28 0 -49 -17 -170
-138z"/>
<path d="M2397 4165 c-691 -112 -1209 -630 -1316 -1315 -6 -36 -15 -146 -20
-245 -14 -270 -58 -451 -158 -665 -55 -116 -65 -153 -53 -205 9 -40 9 -40 -56
-106 l-65 -66 -29 29 c-36 35 -78 37 -108 5 -27 -29 -28 -76 -3 -109 l20 -25
-59 -58 c-33 -33 -66 -73 -75 -91 -19 -40 -19 -107 -1 -142 12 -24 12 -37 1
-92 -63 -290 64 -532 314 -602 78 -21 199 -23 290 -4 54 11 68 11 90 0 35 -18
105 -18 145 1 18 9 58 42 91 75 l58 59 32 -25 c41 -31 79 -31 110 1 32 31 32
66 -2 105 l-26 32 57 56 56 57 78 0 c72 0 84 3 188 51 223 104 400 147 706
169 227 17 357 42 513 100 463 171 826 557 960 1020 47 163 59 255 58 450 0
154 -4 198 -27 309 -42 201 -106 361 -214 526 -233 360 -583 601 -1003 690
-135 29 -419 37 -552 15z m458 -150 c145 -23 261 -61 400 -130 386 -191 656
-537 750 -960 22 -96 31 -380 16 -486 -68 -478 -359 -878 -785 -1079 -196 -93
-326 -125 -581 -141 -177 -11 -310 -30 -426 -59 -111 -29 -272 -86 -350 -126
-38 -19 -80 -34 -95 -34 -21 0 -100 72 -405 371 -209 205 -382 382 -385 394
-4 15 5 42 25 76 106 189 182 485 196 764 16 318 76 537 205 749 214 353 557
585 975 661 98 18 350 18 460 0z m-1338 -3122 l-57 -58 -315 315 -315 315 57
57 58 58 315 -315 315 -315 -58 -57z m-224 -225 c-43 -43 -60 -55 -72 -48 -9
5 -151 144 -316 309 l-299 301 59 60 60 60 312 -312 313 -313 -57 -57z m-316
-51 c-68 -26 -242 32 -292 97 -53 70 -85 187 -70 257 l7 32 189 -189 c173
-173 187 -189 166 -197z"/>
<path d="M3472 3108 c-47 -16 -123 -87 -154 -145 -15 -27 -37 -84 -49 -128
-29 -103 -32 -295 -6 -395 49 -185 156 -300 283 -300 43 0 129 46 164 88 186
224 148 733 -64 857 -50 30 -125 39 -174 23z m111 -165 c114 -120 124 -443 18
-590 -38 -52 -63 -58 -102 -26 -61 52 -99 170 -99 313 0 166 70 330 140 330 9
0 28 -12 43 -27z"/>
<path d="M107 2620 c-38 -30 -38 -90 0 -120 26 -20 36 -21 220 -18 219 3 228
6 228 78 0 72 -9 75 -228 78 -184 3 -194 2 -220 -18z"/>
<path d="M4600 2627 c-51 -26 -47 -117 5 -137 15 -6 106 -10 204 -10 165 0
180 2 205 21 20 16 26 29 26 59 0 30 -6 43 -26 59 -25 20 -40 21 -208 21 -125
0 -189 -4 -206 -13z"/>
<path d="M3975 1145 c-48 -48 -38 -67 114 -219 120 -120 144 -139 171 -139 18
0 40 8 52 21 13 12 21 34 21 52 0 27 -19 51 -139 171 -152 152 -171 162 -219
114z"/>
<path d="M2522 550 c-36 -15 -42 -50 -42 -239 0 -165 2 -180 21 -205 29 -37
89 -37 119 1 20 26 21 36 18 220 -3 210 -5 218 -63 228 -17 2 -40 0 -53 -5z"/>
</g>
</svg>
