<!--?xml version="1.0" standalone="no"?-->

<svg version="1.0" xmlns="http://www.w3.org/2000/svg" width="1024.000000pt" height="1024.000000pt" viewBox="0 0 1024.000000 1024.000000" preserveAspectRatio="xMidYMid meet">

<g transform="translate(0.000000,1024.000000) scale(0.100000,-0.100000)" fill="#E3AB53" stroke="none">
<path d="M4630 6671 c0 -26 3 -29 48 -34 109 -13 219 -91 246 -175 13 -40 16
-187 21 -1017 4 -533 9 -973 11 -977 3 -4 1 -8 -5 -8 -11 0 -86 113 -389 582
-90 139 -287 442 -439 673 -152 231 -352 537 -446 680 -93 143 -176 268 -185
278 -14 16 -44 17 -349 17 l-333 0 0 -29 c0 -26 4 -29 45 -34 120 -17 261
-129 289 -229 12 -44 15 -233 20 -1103 5 -696 3 -1069 -4 -1105 -5 -30 -20
-86 -31 -123 -38 -119 -154 -220 -269 -234 -48 -6 -51 -8 -48 -32 l3 -26 418
-3 417 -2 0 30 c0 27 -3 30 -34 30 -110 0 -224 84 -265 195 -13 33 -26 101
-31 150 -5 50 -11 514 -14 1032 -4 518 -9 949 -12 957 -3 9 -2 16 2 15 10 -1
153 -213 420 -621 104 -161 379 -579 611 -928 231 -349 454 -685 494 -747 l74
-111 353 -1 c193 -1 355 -2 360 -3 4 -2 8 11 10 28 3 31 2 31 -49 38 -104 14
-157 49 -195 131 l-24 50 0 636 0 636 173 7 c169 6 877 -2 887 -11 3 -3 6
-290 8 -638 3 -617 3 -634 -17 -673 -39 -76 -114 -125 -213 -140 -49 -7 -53
-9 -53 -35 l0 -27 485 -1 485 -1 0 28 c0 26 -4 29 -45 35 -25 4 -64 15 -88 24
-53 22 -130 105 -136 148 -3 18 -7 576 -10 1240 -6 1331 -10 1246 56 1308 47
43 121 79 179 86 46 5 49 8 49 34 l0 29 -483 0 c-266 0 -486 -2 -489 -5 -3 -3
-3 -17 0 -30 3 -18 11 -25 28 -25 39 0 134 -40 171 -73 74 -65 73 -50 73 -634
l0 -523 -529 0 -529 0 -7 455 c-9 573 -8 611 29 660 40 52 93 83 174 103 67
16 72 19 72 45 l0 27 -495 0 -495 0 0 -29z"></path>
</g>
</svg>
